<svg xmlns="http://www.w3.org/2000/svg" width="512" height="512" viewBox="0 0 512 512" version="1.1">
	<path d="M 404.500 87.163 C 281.642 99.361, 190.673 124.659, 143.253 159.812 C 128.442 170.792, 110.386 192.388, 101.806 209.385 C 96.869 219.164, 91.962 232.739, 89.298 243.986 C 85.865 258.480, 85.002 284.716, 87.445 300.296 C 91.548 326.461, 101.190 348.658, 117.507 369.500 C 120.952 373.900, 124.887 378.535, 126.252 379.799 L 128.733 382.098 131.591 375.374 C 133.163 371.677, 137.775 362.542, 141.841 355.075 C 172.936 297.974, 218.797 251.044, 274.619 219.202 C 279.634 216.341, 284.018 214, 284.360 214 C 284.703 214, 281.049 217.528, 276.241 221.841 C 234.187 259.563, 200.069 312.630, 182.074 368.308 C 177.565 382.260, 172.200 403.442, 171.770 408.987 L 171.500 412.474 179.853 415.821 C 199.197 423.571, 217.288 426.516, 240.500 425.692 C 270.134 424.640, 293.288 417.295, 317.444 401.282 C 331.050 392.263, 348.492 374.837, 357.323 361.439 C 383.916 321.094, 404.619 254.590, 417.385 168.500 C 421.614 139.984, 425.988 100.234, 425.997 90.250 L 426 86 419.750 86.135 C 416.313 86.209, 409.450 86.672, 404.500 87.163 M 216.488 173.012 L 212.570 177.025 215.228 179.682 C 217.309 181.764, 218.185 182.091, 219.268 181.192 C 220.381 180.269, 223.128 182.788, 233.309 194.062 C 244.758 206.741, 245.850 208.271, 244.734 210.084 C 243.668 211.815, 243.836 212.344, 245.963 213.959 C 248.425 215.829, 248.427 215.829, 252.963 212.026 C 255.458 209.934, 258.287 207.350, 259.249 206.284 C 260.923 204.427, 260.893 204.248, 258.528 202.026 C 256.383 200.011, 255.840 199.888, 254.393 201.089 C 252.918 202.313, 252.236 201.914, 248.458 197.621 C 243.714 192.229, 242.574 188.738, 244.339 185 C 246.661 180.081, 249.516 181.143, 258.120 190.125 L 266.058 198.412 270.233 194.238 L 274.408 190.063 272.097 187.604 C 270.827 186.251, 269.159 185.385, 268.391 185.680 C 267.567 185.996, 264.813 183.998, 261.669 180.803 C 256.338 175.386, 250.822 171.997, 247.349 172.004 C 244.173 172.010, 239.047 175.833, 237.299 179.498 L 235.625 183.010 229.231 176.005 C 225.715 172.152, 222.291 169, 221.622 169 C 220.953 169, 218.643 170.806, 216.488 173.012 M 192.583 204.062 C 190.665 205.745, 188.811 208.019, 188.464 209.114 C 187.956 210.714, 187.550 210.872, 186.397 209.915 C 184.893 208.666, 184.382 208.962, 177.751 214.908 L 175.002 217.373 177.174 219.685 C 179.154 221.793, 179.498 221.860, 181.063 220.443 C 182.644 219.012, 183.178 219.312, 187.749 224.194 C 198.380 235.550, 199.144 236.636, 197.473 238.023 C 196.114 239.150, 196.131 239.487, 197.630 241.143 C 198.554 242.165, 199.578 242.982, 199.905 242.959 C 200.232 242.936, 202.469 241.138, 204.875 238.962 L 209.251 235.006 201.625 226.606 C 197.431 221.987, 194 217.361, 194 216.326 C 194 213.364, 196.890 210, 199.434 210 C 201.074 210, 204.017 212.493, 209.471 218.500 C 213.715 223.175, 217.729 227, 218.391 227 C 219.053 227, 221.265 225.289, 223.308 223.197 L 227.021 219.394 224.208 216.699 C 222.223 214.797, 221.083 214.317, 220.333 215.067 C 219.583 215.817, 217.088 213.905, 211.851 208.565 C 204.956 201.534, 204.137 201, 200.251 201 C 197.012 201, 195.283 201.690, 192.583 204.062 M 342.642 205.392 C 340.639 207.836, 339 210.088, 339 210.395 C 339 210.703, 340.127 211.692, 341.505 212.595 C 343.300 213.771, 344.369 213.938, 345.277 213.185 C 346.225 212.398, 349.875 214.907, 359.771 223.146 C 370.820 232.345, 372.910 234.516, 372.461 236.329 C 372.080 237.865, 372.575 238.903, 374.155 239.880 C 376.251 241.175, 376.680 240.929, 381.162 235.880 C 383.788 232.921, 385.951 230.122, 385.968 229.660 C 385.986 229.198, 384.988 227.997, 383.750 226.991 C 381.772 225.382, 381.305 225.336, 379.884 226.614 C 378.445 227.908, 377.762 227.597, 373.658 223.784 C 368.234 218.744, 367.083 215.354, 369.701 212.121 C 372.136 209.113, 374.804 210.160, 383.499 217.536 C 387.159 220.641, 390.257 223.027, 390.383 222.840 C 390.510 222.653, 392.058 220.626, 393.823 218.335 L 397.033 214.171 394.345 212.057 C 392.641 210.716, 391.308 210.292, 390.704 210.896 C 390.099 211.501, 387.977 210.447, 384.904 208.018 C 382.238 205.911, 378.066 203.427, 375.633 202.497 C 371.464 200.906, 370.996 200.908, 367.560 202.539 C 363.958 204.248, 361 208.321, 361 211.572 C 361 212.770, 359.372 211.883, 355.250 208.438 C 352.087 205.795, 348.776 203.028, 347.892 202.290 C 346.492 201.121, 345.813 201.522, 342.642 205.392 M 157.749 237.689 C 156.519 238.011, 156.161 238.793, 156.544 240.323 C 156.979 242.057, 156.354 242.896, 153.472 244.447 C 148.065 247.356, 144.633 253.831, 145.226 260.005 C 146.081 268.898, 152.723 275, 161.549 275 C 170.594 275, 177.150 269.323, 178.584 260.250 L 179.256 256 175.753 256 C 172.723 256, 172.175 256.375, 171.695 258.777 C 170.047 267.015, 162.040 269.782, 156.520 264.021 C 152.543 259.870, 152.659 255.587, 156.849 251.844 C 159.080 249.850, 161.093 249, 163.583 249 C 166.492 249, 167.043 248.684, 166.627 247.250 C 166.348 246.287, 165.625 243.588, 165.021 241.250 C 163.895 236.893, 162.817 236.365, 157.749 237.689 M 351.136 247.073 C 349.486 247.734, 348.921 248.591, 349.266 249.910 C 349.597 251.173, 348.855 252.470, 347.034 253.817 C 338.823 259.887, 339.325 272.829, 347.999 278.750 C 352.063 281.524, 359.012 281.740, 364 279.248 C 368.066 277.217, 372 270.352, 372 265.288 C 372 262.245, 371.758 262, 368.750 262.002 C 365.856 262.004, 365.477 262.331, 365.291 264.991 C 364.701 273.432, 357.450 276.386, 351.250 270.711 C 346.683 266.531, 349.529 258.644, 356.077 257.335 C 359.463 256.657, 359.572 256.064, 357.364 250.283 C 355.660 245.821, 355.049 245.506, 351.136 247.073 M 107.534 280.625 L 100.568 287.023 103.257 289.711 L 105.945 292.400 108.357 290.134 L 110.769 287.868 119.956 305.026 C 128.403 320.803, 129.017 322.324, 127.579 323.913 C 126.146 325.496, 126.248 325.864, 128.808 328.316 L 131.602 330.992 135.432 327.070 L 139.262 323.148 135.003 315.388 L 130.745 307.629 135.053 303.955 L 139.362 300.281 142.681 302.239 C 146.711 304.617, 146.777 305.267, 143.250 307.836 L 140.500 309.839 142.925 312.420 C 144.258 313.839, 145.844 315, 146.449 315 C 147.055 315, 150.891 311.637, 154.974 307.526 L 162.398 300.052 160.024 297.526 C 157.897 295.262, 157.432 295.142, 155.550 296.376 C 153.618 297.641, 151.999 296.870, 135.474 286.811 C 125.588 280.793, 116.825 275.500, 116 275.048 C 114.917 274.455, 112.564 276.005, 107.534 280.625 M 124.114 294.790 L 127.500 300.929 129.964 298.478 C 132.753 295.703, 132.617 295.482, 125.614 291.458 L 120.728 288.651 124.114 294.790 M 332.388 290.980 C 329.845 292.008, 326 296.689, 326 298.757 C 326 299.899, 325.683 299.982, 324.639 299.116 C 323.565 298.224, 322.518 298.962, 319.675 302.612 L 316.071 307.237 318.286 309.038 C 320.271 310.654, 320.674 310.683, 322.185 309.324 C 323.716 307.946, 324.514 308.329, 330.935 313.517 C 338.292 319.461, 338.654 319.946, 336.987 321.613 C 336.302 322.298, 336.743 323.349, 338.343 324.852 L 340.712 327.078 346.454 319.971 C 349.613 316.062, 352.040 312.767, 351.848 312.649 C 351.657 312.531, 350.699 311.820, 349.721 311.070 C 348.178 309.888, 347.642 309.988, 345.694 311.818 L 343.446 313.930 337.723 309.293 C 332.232 304.843, 331.281 303.038, 332.607 299.582 C 333.302 297.770, 336.646 297.439, 337.208 299.125 C 337.735 300.705, 344 299.208, 344 297.502 C 344 294.826, 342.699 292.896, 339.928 291.463 C 336.762 289.826, 335.453 289.742, 332.388 290.980 M 301.411 329.891 C 297.162 332.482, 294.353 336.306, 293.548 340.593 C 292.756 344.816, 292.597 344.573, 296.750 345.463 C 299.617 346.077, 300 345.908, 300 344.030 C 300 340.929, 302.636 336.328, 304.726 335.782 C 305.719 335.522, 307.367 335.602, 308.387 335.960 C 310.059 336.547, 309.975 336.786, 307.538 338.383 C 304.553 340.339, 302 345.495, 302 349.568 C 302 351.247, 303.278 353.478, 305.528 355.728 C 308.710 358.910, 309.458 359.202, 313.149 358.707 C 317.757 358.089, 324 352.905, 324 349.697 C 324 348.480, 324.503 347.979, 325.385 348.317 C 326.231 348.642, 327.985 347.157, 329.891 344.502 L 333.013 340.155 330.365 338.072 C 328.342 336.481, 327.397 336.256, 326.360 337.116 C 325.307 337.990, 324.047 337.462, 320.751 334.769 C 312.191 327.774, 307.021 326.470, 301.411 329.891 M 311.939 343.061 C 310.636 344.364, 309.993 346.110, 310.189 347.811 C 310.437 349.957, 311.096 350.568, 313.451 350.836 C 318.424 351.402, 321.333 344.319, 317.066 342.035 C 314.479 340.651, 314.317 340.683, 311.939 343.061 M 218.265 363.041 C 216.307 365.441, 216.216 365.934, 217.528 367.023 C 218.820 368.095, 218.537 368.695, 215.469 371.383 C 209.834 376.321, 209.454 383.821, 214.532 389.856 C 218.729 394.844, 222.726 395.569, 234.310 393.443 L 244.270 391.616 246.168 393.959 C 248.356 396.661, 248.194 397.795, 245.352 399.682 C 243.580 400.859, 242.983 400.774, 240.767 399.031 C 238.612 397.337, 237.740 397.195, 235.110 398.112 C 231.370 399.415, 231.209 400.854, 234.415 404.314 C 238.790 409.034, 244.381 409.075, 249.905 404.427 C 254.179 400.830, 255.652 395.496, 253.677 390.768 C 251.523 385.613, 247.220 383.603, 240.086 384.419 C 223.541 386.311, 223.003 386.313, 220.964 384.468 C 216.712 380.619, 219.827 375, 226.214 375 C 228.855 375, 230.171 374.388, 231.328 372.622 C 232.833 370.325, 232.744 370.128, 228.725 366.872 C 219.763 359.611, 220.765 359.977, 218.265 363.041 M 274.020 361.752 C 267.021 365.268, 263.967 374.168, 267.449 380.901 C 269.598 385.058, 275.487 389.813, 279.392 390.546 C 285.939 391.774, 292.860 387.987, 296.028 381.442 C 298.635 376.056, 298.102 374, 294.099 374 C 291.894 374, 290.960 374.576, 290.452 376.250 C 289.330 379.952, 285.886 383, 282.826 383 C 281.272 383, 280 382.745, 280 382.434 C 280 382.123, 282.680 378.432, 285.955 374.232 C 292.615 365.690, 292.593 365.090, 285.500 361.863 C 280.476 359.578, 278.386 359.558, 274.020 361.752 M 275.455 369.455 C 272.935 371.974, 272.392 374.493, 273.868 376.820 C 274.479 377.785, 275.663 376.846, 278.265 373.333 C 280.223 370.690, 281.613 368.183, 281.354 367.763 C 280.443 366.290, 277.886 367.023, 275.455 369.455" stroke="none" fill="black" fill-rule="evenodd"/>
</svg>