<svg xmlns="http://www.w3.org/2000/svg">
  <symbol viewBox="0 0 18 18" id="close">
    <svg width="18" height="18" fill="currentColor" viewBox="0 0 18 18">
      <path d="M14.53 4.53l-1.06-1.06L9 7.94 4.53 3.47 3.47 4.53 7.94 9l-4.47 4.47 1.06 1.06L9 10.06l4.47 4.47 1.06-1.06L10.06 9z"/>
    </svg>
  </symbol>

  <symbol id="back">
    <svg width="24" height="24" fill="currentColor">
      <path d="M15.41 16.09l-4.58-4.59 4.58-4.59L14 5.5l-6 6 6 6z"/>
    </svg>
  </symbol>

  <symbol viewBox="0 0 489.4 489.4" id="sort">
    <svg viewBox="0 0 489.4 489.4" fill="currentColor" preserveAspectRatio="none">
      <path d="M370.2 468.9c0 6.8 5.5 12.3 12.3 12.3s12.3-5.5 12.3-12.3V50.1l73.6 73.6c2.4 2.4 5.5 3.6 8.7 3.6s6.3-1.2 8.7-3.6c4.8-4.8 4.8-12.5 0-17.3l-94.5-94.5c-4.6-4.6-12.7-4.6-17.3 0l-94.5 94.5c-4.8 4.8-4.8 12.5 0 17.3 4.8 4.8 12.5 4.8 17.3 0l73.6-73.6v418.8h-.2zM209.9 365.7c-4.8-4.8-12.5-4.8-17.3 0L119 439.3V20.5c0-6.8-5.5-12.3-12.3-12.3s-12.3 5.5-12.3 12.3v418.8l-73.5-73.6c-4.8-4.8-12.5-4.8-17.3 0s-4.8 12.5 0 17.3l94.5 94.5c2.4 2.4 5.5 3.6 8.7 3.6s6.3-1.2 8.7-3.6L210 383c4.6-4.7 4.6-12.5-.1-17.3z"/>
    </svg>

  </symbol>

  <symbol viewBox="0 0 480 480" id="sort-az">
    <svg width="480" height="480" fill="currentColor">
      <path d="M447.033 361.05c-4.8-4.8-12.5-4.8-17.3 0l-73.6 73.6V15.85c0-6.8-5.5-12.3-12.3-12.3s-12.3 5.5-12.3 12.3v418.8l-73.5-73.6c-4.8-4.8-12.5-4.8-17.3 0s-4.8 12.5 0 17.3l94.5 94.5c2.4 2.4 5.5 3.6 8.7 3.6s6.3-1.2 8.7-3.6l94.5-94.5c4.6-4.7 4.6-12.5-.1-17.3z"/>
      <text font-family="Helvetica, Arial, sans-serif" font-size="200" y="201.886" x="64.732" fill-opacity="null" stroke-opacity="null" font-weight="400">A</text>
      <text font-family="Helvetica, Arial, sans-serif" font-size="200" y="412.827" x="70.343" fill-opacity="null" stroke-opacity="null" font-weight="400">Z</text>
    </svg>
  </symbol>

  <symbol id="prev-arrow">
      <polygon points="19.5 20.5 10.5 12 19.5 3.5 16.5 0.5 4.5 12 16.5 23.5 19.5 20.5" />
  </symbol>

  <symbol id="next-arrow">
      <polygon points="4.5 3.5 13.5 12 4.5 20.5 7.5 23.5 19.5 12 7.5 0.5 4.5 3.5" />
  </symbol>

  <symbol viewBox="0 0 32 32" id="bugs">
    <path d="M13.434 9.958c-1.109-1.33-4.968-4.636-9.939-2.987-7.28 4.32-1.71 11.92 3.35 15.003-5.112 8.796 5.812 9.728 8.527 3.101.147-.227.396-.602.562-.598.17.005.506.45.601.598 1.374 2.938 7.347 6.832 9.632 2.286.8-1.592-.29-3.931-.716-5.774 4.569-1.983 9.862-11.186 3.869-14.22-3.706-1.875-7.448.735-10.459 2.59.176-1.71.866-3.252 2.343-4.33 1.995-1.457 3.175-.177 3.319-1.718.187-2.013-3.474-1.314-4.493-.82-2.493 1.205-3.356 3.966-3.882 6.481-.873-2.276-1.565-5.2-3.894-6.466-.918-.5-4.8-1.082-4.803.736-.004 1.545 2.07.587 3.61 1.904 1.353.92 1.872 2.743 2.373 4.214" fill="currentColor"></path>
  </symbol>
</svg>
