<svg xmlns="http://www.w3.org/2000/svg">
  <symbol viewBox="0 0 18 18" id="close">
    <svg width="18" height="18" fill="currentColor" viewBox="0 0 18 18">
      <path d="M14.53 4.53l-1.06-1.06L9 7.94 4.53 3.47 3.47 4.53 7.94 9l-4.47 4.47 1.06 1.06L9 10.06l4.47 4.47 1.06-1.06L10.06 9z"/>
    </svg>
  </symbol>

  <symbol id="back">
    <svg width="24" height="24" fill="currentColor">
      <path d="M15.41 16.09l-4.58-4.59 4.58-4.59L14 5.5l-6 6 6 6z"/>
    </svg>
  </symbol>

  <symbol viewBox="0 0 489.4 489.4" id="sort">
    <svg viewBox="0 0 489.4 489.4" fill="currentColor" preserveAspectRatio="none">
      <path d="M370.2 468.9c0 6.8 5.5 12.3 12.3 12.3s12.3-5.5 12.3-12.3V50.1l73.6 73.6c2.4 2.4 5.5 3.6 8.7 3.6s6.3-1.2 8.7-3.6c4.8-4.8 4.8-12.5 0-17.3l-94.5-94.5c-4.6-4.6-12.7-4.6-17.3 0l-94.5 94.5c-4.8 4.8-4.8 12.5 0 17.3 4.8 4.8 12.5 4.8 17.3 0l73.6-73.6v418.8h-.2zM209.9 365.7c-4.8-4.8-12.5-4.8-17.3 0L119 439.3V20.5c0-6.8-5.5-12.3-12.3-12.3s-12.3 5.5-12.3 12.3v418.8l-73.5-73.6c-4.8-4.8-12.5-4.8-17.3 0s-4.8 12.5 0 17.3l94.5 94.5c2.4 2.4 5.5 3.6 8.7 3.6s6.3-1.2 8.7-3.6L210 383c4.6-4.7 4.6-12.5-.1-17.3z"/>
    </svg>

  </symbol>

  <symbol viewBox="0 0 480 480" id="sort-az">
    <svg width="480" height="480" fill="currentColor">
      <path d="M447.033 361.05c-4.8-4.8-12.5-4.8-17.3 0l-73.6 73.6V15.85c0-6.8-5.5-12.3-12.3-12.3s-12.3 5.5-12.3 12.3v418.8l-73.5-73.6c-4.8-4.8-12.5-4.8-17.3 0s-4.8 12.5 0 17.3l94.5 94.5c2.4 2.4 5.5 3.6 8.7 3.6s6.3-1.2 8.7-3.6l94.5-94.5c4.6-4.7 4.6-12.5-.1-17.3z"/>
      <text font-family="Helvetica, Arial, sans-serif" font-size="200" y="201.886" x="64.732" fill-opacity="null" stroke-opacity="null" font-weight="400">A</text>
      <text font-family="Helvetica, Arial, sans-serif" font-size="200" y="412.827" x="70.343" fill-opacity="null" stroke-opacity="null" font-weight="400">Z</text>
    </svg>
  </symbol>

  <symbol id="prev-arrow">
    <polygon points="19.5 20.5 10.5 12 19.5 3.5 16.5 0.5 4.5 12 16.5 23.5 19.5 20.5" />
  </symbol>

  <symbol id="next-arrow">
    <polygon points="4.5 3.5 13.5 12 4.5 20.5 7.5 23.5 19.5 12 7.5 0.5 4.5 3.5" />
  </symbol>

  <symbol viewBox="0 0 32 32" id="bugs">
    <path d="M13.434 9.958c-1.109-1.33-4.968-4.636-9.939-2.987-7.28 4.32-1.71 11.92 3.35 15.003-5.112 8.796 5.812 9.728 8.527 3.101.147-.227.396-.602.562-.598.17.005.506.45.601.598 1.374 2.938 7.347 6.832 9.632 2.286.8-1.592-.29-3.931-.716-5.774 4.569-1.983 9.862-11.186 3.869-14.22-3.706-1.875-7.448.735-10.459 2.59.176-1.71.866-3.252 2.343-4.33 1.995-1.457 3.175-.177 3.319-1.718.187-2.013-3.474-1.314-4.493-.82-2.493 1.205-3.356 3.966-3.882 6.481-.873-2.276-1.565-5.2-3.894-6.466-.918-.5-4.8-1.082-4.803.736-.004 1.545 2.07.587 3.61 1.904 1.353.92 1.872 2.743 2.373 4.214" fill="currentColor"></path>
  </symbol>

  <symbol id="fish" viewBox="0 0 32 32">
    <path d="M12.383 7.426C6.82 7.532 1.119 8.788.018 14.16c.018.267-.071.98.034 1.43 2.56 10.978 20.443 11.743 25.295 3.155l-.005.024c1.324 2.772 3.72 3.674 6.179 4.33.358.106.417-.182.297-.36-.687-1.129-2.174-3.886-2.293-6.778-.125-3.05 1.677-5.842 2.37-6.798.119-.21.209-.361-.15-.439-.507-.045-1.515.028-3.24.761-1.995.849-2.83 3.15-2.83 3.15-2.012-3.357-7.73-5.315-13.292-5.209zm-6.731 3.63c2.646-.094 2.984 5.104-.064 5.105-2.933.001-3.002-4.996.064-5.105z" fill="currentColor"></path>
  </symbol>

  <symbol id="sea" viewBox="0 0 32 32">
    <path d="M16 .003c-2.924 0-5.064.483-8.282 2.896C4.5 5.313 4.34 8.53 4.34 9.817s.16 4.827 2.252 7.24c1.587 1.801 3.516 2.203 1.288 2.736-2.252.321-3.54 2.09-3.54 2.09s-.724 1.047-.724 3.782c0 2.735 3.298 4.585 3.298 4.585s1.127 0 .966-1.125c-.16-1.127-.965-1.449.483-3.701 1.046-1.368 1.608-.965 1.608-.965s.483.482.322 1.286c-.563 1.046-.321 4.104 2.736 6.035 1.69.483 2.091.24 1.447-1.369-.16-1.77-.482-5.309 1.525-5.309 2.007 0 1.684 3.54 1.523 5.31-.643 1.608-.24 1.85 1.45 1.368 3.056-1.93 3.297-4.989 2.734-6.035-.161-.804.321-1.286.321-1.286s.563-.403 1.609.965c1.448 2.252.645 2.574.484 3.7-.161 1.127.965 1.126.965 1.126s3.297-1.85 3.297-4.585-.723-3.781-.723-3.781-1.287-1.77-3.54-2.091c-2.227-.533-.3-.935 1.288-2.736 2.091-2.414 2.252-5.953 2.252-7.24S27.5 5.313 24.282 2.9C21.064.486 18.924.003 16 .003zm-4.088 17.164a1.807 1.807 0 01.002 0 1.807 1.807 0 011.807 1.807 1.807 1.807 0 01-1.807 1.807 1.807 1.807 0 01-1.807-1.807 1.807 1.807 0 011.805-1.807zm8.035 0a1.807 1.807 0 01.002 0 1.807 1.807 0 011.807 1.807 1.807 1.807 0 01-1.807 1.807 1.807 1.807 0 01-1.806-1.807 1.807 1.807 0 011.804-1.807z" fill="currentColor"></path>
  </symbol>

  <symbol viewBox="0 0 24 24" id="search" fill="currentColor">
    <path d="M0 0h24v24H0z" fill="none"/>
    <path d="M15.5 14h-.79l-.28-.27C15.41 12.59 16 11.11 16 9.5 16 5.91 13.09 3 9.5 3S3 5.91 3 9.5 5.91 16 9.5 16c1.61 0 3.09-.59 4.23-1.57l.27.28v.79l5 4.99L20.49 19l-4.99-5zm-6 0C7.01 14 5 11.99 5 9.5S7.01 5 9.5 5 14 7.01 14 9.5 11.99 14 9.5 14z"/>
  </symbol>

  <symbol viewBox="0 0 24 24" fill="currentColor" id="me">
    <path d="M0 0h24v24H0z" fill="none"/>
    <path d="M12 12c2.21 0 4-1.79 4-4s-1.79-4-4-4-4 1.79-4 4 1.79 4 4 4zm0 2c-2.67 0-8 1.34-8 4v2h16v-2c0-2.66-5.33-4-8-4z"/>
  </symbol>
</svg>
